<svg width="768" height="150" viewBox="0 0 768 150" fill="none" xmlns="http://www.w3.org/2000/svg">
<circle cx="75" cy="75" r="74.5" stroke="#0066FF"/>
<mask id="path-2-inside-1_362_733" fill="white">
<path d="M104.783 76.9643C104.333 72.0393 103.591 71.0802 103.311 70.7194C102.667 69.8858 101.637 69.341 100.547 68.7694C100.485 68.7377 100.432 68.6923 100.392 68.6371C100.351 68.5818 100.324 68.5181 100.313 68.451C100.302 68.3839 100.307 68.3151 100.328 68.2503C100.349 68.1854 100.385 68.1262 100.433 68.0772C100.635 67.8776 100.79 67.6377 100.888 67.3741C100.986 67.1105 101.024 66.8294 101 66.5501C100.953 66.0548 100.716 65.5948 100.338 65.2614C99.9592 64.928 99.4658 64.7454 98.9556 64.75H97.0053C96.9217 64.7505 96.8383 64.7558 96.7553 64.7658C96.6984 64.7418 96.6394 64.7226 96.579 64.7086C95.4239 62.3283 93.8424 59.0694 90.5644 57.4789C85.7024 55.1219 76.7461 55 74.9959 55C73.2456 55 64.2893 55.1219 59.4336 57.4753C56.1556 59.0657 54.5741 62.3247 53.4189 64.7049L53.4089 64.7244C53.3513 64.7323 53.2947 64.7462 53.2402 64.7658C53.1572 64.7558 53.0737 64.7505 52.9901 64.75H51.0361C50.5259 64.7454 50.0325 64.928 49.6539 65.2614C49.2753 65.5948 49.039 66.0548 48.992 66.5501C48.9698 66.8288 49.0096 67.1088 49.1086 67.3711C49.2077 67.6334 49.3636 67.8717 49.5659 68.0699C49.6142 68.1188 49.6503 68.1781 49.6712 68.243C49.692 68.3078 49.6972 68.3765 49.6861 68.4437C49.6751 68.5108 49.6482 68.5745 49.6076 68.6298C49.567 68.685 49.5137 68.7303 49.4521 68.7621C48.3619 69.3374 47.3268 69.8822 46.6879 70.7121C46.4079 71.0777 45.6678 72.032 45.2165 76.957C44.9664 79.7284 44.9289 82.5974 45.1252 84.445C45.5365 88.2841 46.3079 90.6046 46.3404 90.7008C46.4588 91.0512 46.6766 91.3617 46.9687 91.5962C47.2608 91.8307 47.6152 91.9796 47.9906 92.0256V92.05C47.9906 92.5672 48.2014 93.0632 48.5765 93.4289C48.9516 93.7946 49.4604 94 49.9909 94H56.992C57.5225 94 58.0313 93.7946 58.4064 93.4289C58.7815 93.0632 58.9923 92.5672 58.9923 92.05C60.0687 92.05 60.8175 91.8623 61.6114 91.6624C62.7575 91.3614 63.9291 91.1611 65.1119 91.064C68.9262 90.7094 72.7193 90.5875 74.9959 90.5875C77.2262 90.5875 81.1868 90.7094 85.0073 91.064C86.1948 91.1613 87.371 91.3624 88.5216 91.6649C89.2817 91.855 90.0031 92.0305 91.002 92.0488C91.002 92.566 91.2127 93.0619 91.5878 93.4276C91.963 93.7933 92.4717 93.9988 93.0023 93.9988H100.003C100.534 93.9988 101.043 93.7933 101.418 93.4276C101.793 93.0619 102.004 92.566 102.004 92.0488V92.0342C102.38 91.989 102.735 91.8405 103.028 91.6059C103.321 91.3714 103.54 91.0604 103.659 90.7094C103.691 90.6131 104.463 88.2926 104.874 84.4535C105.07 82.6047 105.035 79.7406 104.783 76.9643ZM57.0345 66.3722C58.0346 64.3003 59.1785 61.9554 61.2151 60.967C64.158 59.5386 70.2577 58.8951 74.9959 58.8951C79.7341 58.8951 85.8337 59.5338 88.7766 60.967C90.8132 61.9554 91.9521 64.3015 92.9572 66.3722L93.0823 66.6366C93.1554 66.7872 93.1877 66.9535 93.1761 67.1197C93.1646 67.2859 93.1095 67.4464 93.0163 67.586C92.923 67.7256 92.7946 67.8395 92.6433 67.917C92.4921 67.9944 92.3229 68.0328 92.1521 68.0284C87.9978 67.9187 79.2465 67.5677 74.9959 67.5677C70.7452 67.5677 61.9939 67.9273 57.8333 68.037C57.6625 68.0413 57.4934 68.0029 57.3421 67.9255C57.1909 67.848 57.0625 67.7341 56.9692 67.5945C56.8759 67.455 56.8209 67.2944 56.8093 67.1282C56.7978 66.962 56.8301 66.7957 56.9032 66.6452C56.947 66.555 56.9932 66.4636 57.0345 66.3722ZM58.5259 76.0771C56.3754 76.3294 54.2111 76.4539 52.045 76.45C50.7198 76.45 49.3533 76.0844 49.0995 74.9339C48.9258 74.16 48.9445 73.7249 49.0383 73.2873C49.117 72.9156 49.2421 72.6451 49.8672 72.55C51.4924 72.3062 52.4013 72.6122 55.0617 73.3763C56.8257 73.8821 58.0984 74.5561 58.8235 75.0899C59.1873 75.3531 58.9935 76.0405 58.5259 76.0771ZM86.2025 86.0708C84.5573 86.2536 81.2668 86.1866 75.0334 86.1866C68.7999 86.1866 65.5107 86.2536 63.8655 86.0708C62.1677 85.8868 60.0036 84.3219 61.4814 82.9277C62.4653 82.0087 64.7606 81.3213 67.8173 80.935C70.874 80.5487 72.1679 80.35 75.0209 80.35C77.8738 80.35 79.0364 80.4719 82.2244 80.9362C85.4124 81.4006 87.8215 82.0965 88.5604 82.9289C89.9081 84.4206 87.899 85.877 86.2025 86.0781V86.0708ZM100.892 74.9327C100.642 76.088 99.2669 76.4488 97.9467 76.4488C95.7392 76.4493 93.5335 76.3248 91.3408 76.0758C90.9582 76.0405 90.7807 75.386 91.1682 75.0887C91.8821 74.5414 93.1685 73.8809 94.93 73.3751C97.5904 72.6109 99.1244 72.305 100.442 72.5598C100.763 72.6219 100.933 72.9583 100.953 73.1691C101.042 73.7562 101.021 74.354 100.892 74.9339V74.9327Z"/>
</mask>
<path d="M104.783 76.9643C104.333 72.0393 103.591 71.0802 103.311 70.7194C102.667 69.8858 101.637 69.341 100.547 68.7694C100.485 68.7377 100.432 68.6923 100.392 68.6371C100.351 68.5818 100.324 68.5181 100.313 68.451C100.302 68.3839 100.307 68.3151 100.328 68.2503C100.349 68.1854 100.385 68.1262 100.433 68.0772C100.635 67.8776 100.79 67.6377 100.888 67.3741C100.986 67.1105 101.024 66.8294 101 66.5501C100.953 66.0548 100.716 65.5948 100.338 65.2614C99.9592 64.928 99.4658 64.7454 98.9556 64.75H97.0053C96.9217 64.7505 96.8383 64.7558 96.7553 64.7658C96.6984 64.7418 96.6394 64.7226 96.579 64.7086C95.4239 62.3283 93.8424 59.0694 90.5644 57.4789C85.7024 55.1219 76.7461 55 74.9959 55C73.2456 55 64.2893 55.1219 59.4336 57.4753C56.1556 59.0657 54.5741 62.3247 53.4189 64.7049L53.4089 64.7244C53.3513 64.7323 53.2947 64.7462 53.2402 64.7658C53.1572 64.7558 53.0737 64.7505 52.9901 64.75H51.0361C50.5259 64.7454 50.0325 64.928 49.6539 65.2614C49.2753 65.5948 49.039 66.0548 48.992 66.5501C48.9698 66.8288 49.0096 67.1088 49.1086 67.3711C49.2077 67.6334 49.3636 67.8717 49.5659 68.0699C49.6142 68.1188 49.6503 68.1781 49.6712 68.243C49.692 68.3078 49.6972 68.3765 49.6861 68.4437C49.6751 68.5108 49.6482 68.5745 49.6076 68.6298C49.567 68.685 49.5137 68.7303 49.4521 68.7621C48.3619 69.3374 47.3268 69.8822 46.6879 70.7121C46.4079 71.0777 45.6678 72.032 45.2165 76.957C44.9664 79.7284 44.9289 82.5974 45.1252 84.445C45.5365 88.2841 46.3079 90.6046 46.3404 90.7008C46.4588 91.0512 46.6766 91.3617 46.9687 91.5962C47.2608 91.8307 47.6152 91.9796 47.9906 92.0256V92.05C47.9906 92.5672 48.2014 93.0632 48.5765 93.4289C48.9516 93.7946 49.4604 94 49.9909 94H56.992C57.5225 94 58.0313 93.7946 58.4064 93.4289C58.7815 93.0632 58.9923 92.5672 58.9923 92.05C60.0687 92.05 60.8175 91.8623 61.6114 91.6624C62.7575 91.3614 63.9291 91.1611 65.1119 91.064C68.9262 90.7094 72.7193 90.5875 74.9959 90.5875C77.2262 90.5875 81.1868 90.7094 85.0073 91.064C86.1948 91.1613 87.371 91.3624 88.5216 91.6649C89.2817 91.855 90.0031 92.0305 91.002 92.0488C91.002 92.566 91.2127 93.0619 91.5878 93.4276C91.963 93.7933 92.4717 93.9988 93.0023 93.9988H100.003C100.534 93.9988 101.043 93.7933 101.418 93.4276C101.793 93.0619 102.004 92.566 102.004 92.0488V92.0342C102.38 91.989 102.735 91.8405 103.028 91.6059C103.321 91.3714 103.54 91.0604 103.659 90.7094C103.691 90.6131 104.463 88.2926 104.874 84.4535C105.07 82.6047 105.035 79.7406 104.783 76.9643ZM57.0345 66.3722C58.0346 64.3003 59.1785 61.9554 61.2151 60.967C64.158 59.5386 70.2577 58.8951 74.9959 58.8951C79.7341 58.8951 85.8337 59.5338 88.7766 60.967C90.8132 61.9554 91.9521 64.3015 92.9572 66.3722L93.0823 66.6366C93.1554 66.7872 93.1877 66.9535 93.1761 67.1197C93.1646 67.2859 93.1095 67.4464 93.0163 67.586C92.923 67.7256 92.7946 67.8395 92.6433 67.917C92.4921 67.9944 92.3229 68.0328 92.1521 68.0284C87.9978 67.9187 79.2465 67.5677 74.9959 67.5677C70.7452 67.5677 61.9939 67.9273 57.8333 68.037C57.6625 68.0413 57.4934 68.0029 57.3421 67.9255C57.1909 67.848 57.0625 67.7341 56.9692 67.5945C56.8759 67.455 56.8209 67.2944 56.8093 67.1282C56.7978 66.962 56.8301 66.7957 56.9032 66.6452C56.947 66.555 56.9932 66.4636 57.0345 66.3722ZM58.5259 76.0771C56.3754 76.3294 54.2111 76.4539 52.045 76.45C50.7198 76.45 49.3533 76.0844 49.0995 74.9339C48.9258 74.16 48.9445 73.7249 49.0383 73.2873C49.117 72.9156 49.2421 72.6451 49.8672 72.55C51.4924 72.3062 52.4013 72.6122 55.0617 73.3763C56.8257 73.8821 58.0984 74.5561 58.8235 75.0899C59.1873 75.3531 58.9935 76.0405 58.5259 76.0771ZM86.2025 86.0708C84.5573 86.2536 81.2668 86.1866 75.0334 86.1866C68.7999 86.1866 65.5107 86.2536 63.8655 86.0708C62.1677 85.8868 60.0036 84.3219 61.4814 82.9277C62.4653 82.0087 64.7606 81.3213 67.8173 80.935C70.874 80.5487 72.1679 80.35 75.0209 80.35C77.8738 80.35 79.0364 80.4719 82.2244 80.9362C85.4124 81.4006 87.8215 82.0965 88.5604 82.9289C89.9081 84.4206 87.899 85.877 86.2025 86.0781V86.0708ZM100.892 74.9327C100.642 76.088 99.2669 76.4488 97.9467 76.4488C95.7392 76.4493 93.5335 76.3248 91.3408 76.0758C90.9582 76.0405 90.7807 75.386 91.1682 75.0887C91.8821 74.5414 93.1685 73.8809 94.93 73.3751C97.5904 72.6109 99.1244 72.305 100.442 72.5598C100.763 72.6219 100.933 72.9583 100.953 73.1691C101.042 73.7562 101.021 74.354 100.892 74.9339V74.9327Z" fill="#0066FF"/>
<path d="M104.783 76.9643L105.779 76.8737L105.779 76.8733L104.783 76.9643ZM103.311 70.7194L102.52 71.3307L102.521 71.3326L103.311 70.7194ZM100.547 68.7694L101.011 67.8838L101.005 67.8806L100.547 68.7694ZM100.433 68.0772L99.7302 67.366L99.722 67.3743L100.433 68.0772ZM101 66.5501L101.996 66.4635L101.995 66.4556L101 66.5501ZM98.9556 64.75V65.75L98.9646 65.75L98.9556 64.75ZM97.0053 64.75V63.75L96.9996 63.75L97.0053 64.75ZM96.7553 64.7658L96.3658 65.6869L96.6113 65.7907L96.8758 65.7586L96.7553 64.7658ZM96.579 64.7086L95.6794 65.1452L95.8877 65.5745L96.3525 65.6826L96.579 64.7086ZM90.5644 57.4789L91.0009 56.5792L91.0006 56.5791L90.5644 57.4789ZM59.4336 57.4753L58.9974 56.5754L58.997 56.5756L59.4336 57.4753ZM53.4189 64.7049L54.3087 65.1613L54.3138 65.1515L54.3186 65.1415L53.4189 64.7049ZM53.4089 64.7244L53.5448 65.7151L54.0609 65.6444L54.2987 65.1808L53.4089 64.7244ZM53.2402 64.7658L53.1196 65.7586L53.3554 65.7872L53.5788 65.7068L53.2402 64.7658ZM52.9901 64.75L52.9959 63.75H52.9901V64.75ZM51.0361 64.75L51.0271 65.75H51.0361V64.75ZM48.992 66.5501L47.9965 66.4556L47.9958 66.4631L47.9952 66.4707L48.992 66.5501ZM49.5659 68.0699L50.2772 67.367L50.2715 67.3612L50.2657 67.3556L49.5659 68.0699ZM49.4521 68.7621L48.9939 67.8732L48.9854 67.8777L49.4521 68.7621ZM46.6879 70.7121L45.8955 70.1022L45.8941 70.1041L46.6879 70.7121ZM45.2165 76.957L44.2206 76.8657L44.2205 76.8671L45.2165 76.957ZM45.1252 84.445L44.1308 84.5506L44.1309 84.5515L45.1252 84.445ZM46.3404 90.7008L45.3929 91.0207L45.393 91.0209L46.3404 90.7008ZM47.9906 92.0256H48.9906V91.1408L48.1124 91.0331L47.9906 92.0256ZM47.9906 92.05H46.9906H47.9906ZM58.9923 92.05V91.05H57.9923V92.05H58.9923ZM61.6114 91.6624L61.8556 92.6322L61.8654 92.6296L61.6114 91.6624ZM65.1119 91.064L65.1937 92.0607L65.2045 92.0597L65.1119 91.064ZM85.0073 91.064L84.9149 92.0598L84.9257 92.0607L85.0073 91.064ZM88.5216 91.6649L88.2673 92.6321L88.2789 92.635L88.5216 91.6649ZM91.002 92.0488H92.002V91.0669L91.0203 91.049L91.002 92.0488ZM102.004 92.0342L101.884 91.0413L101.004 91.147V92.0342H102.004ZM103.659 90.7094L104.606 91.0298L104.606 91.0292L103.659 90.7094ZM104.874 84.4535L105.868 84.5601L105.868 84.5591L104.874 84.4535ZM57.0345 66.3722L56.1339 65.9374L56.1283 65.949L56.123 65.9608L57.0345 66.3722ZM61.2151 60.967L61.6517 61.8666L61.6517 61.8666L61.2151 60.967ZM88.7766 60.967L88.3388 61.8661L88.34 61.8666L88.7766 60.967ZM92.9572 66.3722L93.8614 65.9448L93.8569 65.9355L92.9572 66.3722ZM93.0823 66.6366L92.1781 67.064L92.1827 67.0734L93.0823 66.6366ZM92.1521 68.0284L92.1257 69.0281L92.1266 69.0281L92.1521 68.0284ZM57.8333 68.037L57.8588 69.0366L57.8597 69.0366L57.8333 68.037ZM56.9032 66.6452L57.8028 67.082L57.8029 67.0817L56.9032 66.6452ZM58.5259 76.0771L58.448 75.0801L58.4287 75.0816L58.4094 75.0839L58.5259 76.0771ZM52.045 76.45L52.0468 75.45H52.045V76.45ZM49.0995 74.9339L50.0761 74.7185L50.0753 74.7148L49.0995 74.9339ZM49.0383 73.2873L50.0161 73.4969L50.0166 73.4946L49.0383 73.2873ZM49.8672 72.55L49.7188 71.5611L49.7168 71.5614L49.8672 72.55ZM55.0617 73.3763L54.7856 74.3375L54.7861 74.3376L55.0617 73.3763ZM58.8235 75.0899L58.2306 75.8952L58.2373 75.9L58.8235 75.0899ZM86.2025 86.0708H87.2025V84.9535L86.0921 85.0769L86.2025 86.0708ZM63.8655 86.0708L63.9759 85.0769L63.9732 85.0766L63.8655 86.0708ZM61.4814 82.9277L60.7988 82.1968L60.7951 82.2003L61.4814 82.9277ZM88.5604 82.9289L87.8124 83.5927L87.8183 83.5992L88.5604 82.9289ZM86.2025 86.0781H85.2025V87.2037L86.3202 87.0712L86.2025 86.0781ZM100.892 74.9327H101.892L99.9148 74.7211L100.892 74.9327ZM97.9467 76.4488V75.4488H97.9465L97.9467 76.4488ZM91.3408 76.0758L91.4536 75.0822L91.4432 75.081L91.4328 75.0801L91.3408 76.0758ZM91.1682 75.0887L90.5598 74.295L90.5595 74.2953L91.1682 75.0887ZM94.93 73.3751L95.206 74.3363L95.2061 74.3362L94.93 73.3751ZM100.442 72.5598L100.632 71.578L100.632 71.5779L100.442 72.5598ZM100.953 73.1691L99.9579 73.2636L99.9605 73.2907L99.9645 73.3177L100.953 73.1691ZM100.892 74.9339H99.8922L101.868 75.1505L100.892 74.9339ZM105.779 76.8733C105.322 71.8797 104.556 70.6916 104.101 70.1062L102.521 71.3326C102.627 71.4688 103.343 72.199 103.787 77.0553L105.779 76.8733ZM104.103 70.1082C103.3 69.0686 102.051 68.429 101.011 67.8838L100.083 69.6551C101.223 70.2531 102.035 70.703 102.52 71.3307L104.103 70.1082ZM101.005 67.8806C101.079 67.9187 101.146 67.9743 101.197 68.0449L99.5858 69.2292C99.7189 69.4104 99.8917 69.5566 100.089 69.6583L101.005 67.8806ZM101.197 68.0449C101.249 68.1157 101.285 68.199 101.3 68.2888L99.3263 68.6131C99.3631 68.8372 99.4526 69.048 99.5858 69.2292L101.197 68.0449ZM101.3 68.2888C101.315 68.3786 101.308 68.4705 101.28 68.5565L99.3761 67.944C99.3067 68.1598 99.2895 68.3891 99.3263 68.6131L101.3 68.2888ZM101.28 68.5565C101.252 68.6425 101.205 68.7187 101.145 68.7801L99.722 67.3743C99.5646 67.5336 99.4455 67.7283 99.3761 67.944L101.28 68.5565ZM101.136 68.7883C101.441 68.4872 101.677 68.1236 101.826 67.7218L99.9506 67.0264C99.904 67.1519 99.8295 67.268 99.7303 67.3661L101.136 68.7883ZM101.826 67.7218C101.975 67.32 102.033 66.8906 101.996 66.4635L100.003 66.6367C100.015 66.7683 99.997 66.9011 99.9506 67.0264L101.826 67.7218ZM101.995 66.4556C101.924 65.7031 101.565 65.0099 100.999 64.5109L99.6769 66.0119C99.8676 66.1798 99.9816 66.4065 100.004 66.6446L101.995 66.4556ZM100.999 64.5109C100.433 64.0126 99.7002 63.7433 98.9467 63.75L98.9646 65.75C99.2315 65.7476 99.4855 65.8433 99.6769 66.0119L100.999 64.5109ZM98.9556 63.75H97.0053V65.75H98.9556V63.75ZM96.9996 63.75C96.8776 63.7507 96.7558 63.7584 96.6348 63.7731L96.8758 65.7586C96.9207 65.7531 96.9659 65.7502 97.0111 65.75L96.9996 63.75ZM97.1448 63.8448C97.035 63.7984 96.9215 63.7615 96.8056 63.7346L96.3525 65.6826C96.3573 65.6837 96.3617 65.6851 96.3658 65.6869L97.1448 63.8448ZM97.4787 64.2719C96.3452 61.9363 94.6354 58.3427 91.0009 56.5792L90.1279 58.3786C93.0493 59.7961 94.5026 62.7204 95.6794 65.1452L97.4787 64.2719ZM91.0006 56.5791C88.4045 55.3205 84.803 54.6882 81.7187 54.3611C78.6046 54.0309 75.8895 54 74.9959 54V56C75.8525 56 78.4906 56.03 81.5078 56.35C84.5547 56.6731 87.8624 57.2803 90.1282 58.3788L91.0006 56.5791ZM74.9959 54C74.1022 54 71.3871 54.0309 68.2739 54.3607C65.1906 54.6873 61.5905 55.3186 58.9974 56.5754L59.8697 58.3752C62.1323 57.2786 65.4383 56.6722 68.4846 56.3495C71.501 56.03 74.1392 56 74.9959 56V54ZM58.997 56.5756C55.3625 58.3391 53.6528 61.9327 52.5193 64.2683L54.3186 65.1415C55.4954 62.7167 56.9487 59.7924 59.8701 58.375L58.997 56.5756ZM52.5292 64.2485L52.5192 64.268L54.2987 65.1808L54.3087 65.1613L52.5292 64.2485ZM53.2731 63.7337C53.1465 63.751 53.0219 63.7816 52.9015 63.8249L53.5788 65.7068C53.5676 65.7108 53.5562 65.7136 53.5448 65.7151L53.2731 63.7337ZM53.3607 63.7731C53.2396 63.7584 53.1178 63.7507 52.9959 63.75L52.9843 65.75C53.0296 65.7502 53.0748 65.7531 53.1196 65.7586L53.3607 63.7731ZM52.9901 63.75H51.0361V65.75H52.9901V63.75ZM51.045 63.75C50.2915 63.7433 49.5589 64.0126 48.993 64.5109L50.3148 66.0119C50.5062 65.8433 50.7602 65.7476 51.0271 65.75L51.045 63.75ZM48.993 64.5109C48.4265 65.0099 48.0679 65.7031 47.9965 66.4556L49.9876 66.6446C50.0102 66.4065 50.1241 66.1798 50.3148 66.0119L48.993 64.5109ZM47.9952 66.4707C47.9612 66.8967 48.0221 67.3245 48.1731 67.7243L50.0442 67.0179C49.9971 66.8931 49.9784 66.7608 49.9889 66.6295L47.9952 66.4707ZM48.1731 67.7243C48.324 68.1241 48.561 68.4853 48.866 68.7842L50.2657 67.3556C50.1663 67.2582 50.0913 67.1427 50.0442 67.0179L48.1731 67.7243ZM48.8545 68.7727C48.7939 68.7114 48.7469 68.6352 48.7192 68.5492L50.6231 67.9367C50.5537 67.721 50.4346 67.5263 50.2772 67.367L48.8545 68.7727ZM48.7192 68.5492C48.6915 68.4632 48.6846 68.3713 48.6994 68.2815L50.6729 68.6058C50.7097 68.3817 50.6925 68.1525 50.6231 67.9367L48.7192 68.5492ZM48.6994 68.2815C48.7141 68.1917 48.7498 68.1083 48.8018 68.0376L50.4134 69.2219C50.5466 69.0407 50.6361 68.8299 50.6729 68.6058L48.6994 68.2815ZM48.8018 68.0376C48.8536 67.967 48.9199 67.9114 48.9939 67.8733L49.9103 69.651C50.1075 69.5493 50.2803 69.4031 50.4134 69.2219L48.8018 68.0376ZM48.9854 67.8777C47.9509 68.4236 46.6938 69.065 45.8955 70.1022L47.4804 71.3221C47.9597 70.6993 48.773 70.2512 49.9188 69.6465L48.9854 67.8777ZM45.8941 70.1041C45.4446 70.6908 44.6785 71.869 44.2206 76.8657L46.2123 77.0483C46.657 72.1951 47.3712 71.4647 47.4818 71.3202L45.8941 70.1041ZM44.2205 76.8671C43.9673 79.6737 43.925 82.6137 44.1308 84.5506L46.1196 84.3394C45.9328 82.581 45.9656 79.7832 46.2124 77.0469L44.2205 76.8671ZM44.1309 84.5515C44.5515 88.4777 45.3422 90.8706 45.3929 91.0207L47.2879 90.381C47.2735 90.3386 46.5215 88.0904 46.1195 84.3385L44.1309 84.5515ZM45.393 91.0209C45.5733 91.5545 45.9039 92.0237 46.3427 92.376L47.5948 90.8164C47.4494 90.6997 47.3443 90.5479 47.2878 90.3808L45.393 91.0209ZM46.3427 92.376C46.7814 92.7281 47.3108 92.9497 47.8689 93.0182L48.1124 91.0331C47.9196 91.0094 47.7403 90.9332 47.5948 90.8164L46.3427 92.376ZM46.9906 92.0256V92.05H48.9906V92.0256H46.9906ZM46.9906 92.05C46.9906 92.8407 47.3131 93.5938 47.8785 94.1449L49.2746 92.7128C49.0897 92.5326 48.9906 92.2936 48.9906 92.05H46.9906ZM47.8785 94.1449C48.443 94.6952 49.2033 95 49.9909 95V93C49.7175 93 49.4603 92.8939 49.2746 92.7128L47.8785 94.1449ZM49.9909 95H56.992V93H49.9909V95ZM56.992 95C57.7796 95 58.5399 94.6952 59.1044 94.1449L57.7083 92.7128C57.5226 92.8939 57.2654 93 56.992 93V95ZM59.1044 94.1449C59.6698 93.5938 59.9923 92.8407 59.9923 92.05H57.9923C57.9923 92.2936 57.8932 92.5326 57.7083 92.7128L59.1044 94.1449ZM58.9923 93.05C60.2012 93.05 61.0526 92.8343 61.8555 92.6322L61.3672 90.6927C60.5824 90.8903 59.9362 91.05 58.9923 91.05V93.05ZM61.8654 92.6296C62.9551 92.3434 64.0689 92.153 65.1937 92.0607L65.0301 90.0674C63.7892 90.1692 62.56 90.3793 61.3573 90.6953L61.8654 92.6296ZM65.2045 92.0597C68.9846 91.7083 72.7466 91.5875 74.9959 91.5875V89.5875C72.692 89.5875 68.8678 89.7105 65.0193 90.0683L65.2045 92.0597ZM74.9959 91.5875C77.2001 91.5875 81.1295 91.7084 84.9149 92.0598L85.0998 90.0683C81.244 89.7104 77.2522 89.5875 74.9959 89.5875V91.5875ZM84.9257 92.0607C86.055 92.1532 87.1734 92.3444 88.2674 92.632L88.7758 90.6977C87.5686 90.3804 86.3347 90.1694 85.089 90.0674L84.9257 92.0607ZM88.2789 92.635C89.049 92.8276 89.8638 93.0281 90.9837 93.0486L91.0203 91.049C90.1424 91.0329 89.5144 90.8824 88.7642 90.6948L88.2789 92.635ZM90.002 92.0488C90.002 92.8395 90.3244 93.5925 90.8898 94.1437L92.2859 92.7116C92.101 92.5314 92.002 92.2924 92.002 92.0488H90.002ZM90.8898 94.1437C91.4543 94.694 92.2146 94.9988 93.0023 94.9988V92.9988C92.7289 92.9988 92.4716 92.8927 92.2859 92.7116L90.8898 94.1437ZM93.0023 94.9988H100.003V92.9988H93.0023V94.9988ZM100.003 94.9988C100.791 94.9988 101.551 94.694 102.116 94.1437L100.72 92.7116C100.534 92.8927 100.277 92.9988 100.003 92.9988V94.9988ZM102.116 94.1437C102.681 93.5925 103.004 92.8395 103.004 92.0488H101.004C101.004 92.2924 100.905 92.5314 100.72 92.7116L102.116 94.1437ZM103.004 92.0488V92.0342H101.004V92.0488H103.004ZM102.123 93.027C102.682 92.9599 103.213 92.7388 103.653 92.3866L102.404 90.8252C102.257 90.9421 102.078 91.0181 101.884 91.0413L102.123 93.027ZM103.653 92.3866C104.094 92.0343 104.425 91.5644 104.606 91.0298L102.712 90.389C102.655 90.5565 102.549 90.7085 102.404 90.8252L103.653 92.3866ZM104.606 91.0292C104.657 90.8791 105.448 88.4862 105.868 84.5601L103.88 84.347C103.478 88.099 102.726 90.3471 102.711 90.3895L104.606 91.0292ZM105.868 84.5591C106.074 82.6214 106.034 79.6864 105.779 76.8737L103.787 77.0549C104.036 79.7949 104.066 82.5879 103.88 84.348L105.868 84.5591ZM57.935 66.8069C58.4403 65.7602 58.945 64.7252 59.5603 63.8295C60.1728 62.938 60.848 62.2567 61.6517 61.8666L60.7785 60.0674C59.5456 60.6657 58.6305 61.651 57.9119 62.697C57.1961 63.7388 56.6288 64.9122 56.1339 65.9374L57.935 66.8069ZM61.6517 61.8666C62.9752 61.2243 65.106 60.7224 67.5676 60.3862C70.0031 60.0536 72.6671 59.8951 74.9959 59.8951V57.8951C72.5864 57.8951 69.8315 58.0584 67.2969 58.4046C64.7884 58.7473 62.3979 59.2814 60.7784 60.0674L61.6517 61.8666ZM74.9959 59.8951C77.325 59.8951 79.989 60.0524 82.4244 60.3844C84.886 60.72 87.016 61.2218 88.3388 61.866L89.2145 60.068C87.5943 59.2789 85.2031 58.7448 82.6946 58.4028C80.1599 58.0572 77.405 57.8951 74.9959 57.8951V59.8951ZM88.34 61.8666C89.1432 62.2565 89.8171 62.9376 90.4292 63.8296C91.0445 64.7261 91.549 65.761 92.0576 66.8088L93.8569 65.9355C93.3604 64.9127 92.7929 63.7392 92.0782 62.6979C91.3605 61.652 90.4466 60.6659 89.2133 60.0674L88.34 61.8666ZM92.0532 66.7995L92.1782 67.064L93.9863 66.2093L93.8613 65.9448L92.0532 66.7995ZM92.1827 67.0734C92.1798 67.0675 92.1779 67.0594 92.1785 67.0503L94.1737 67.189C94.1975 66.8476 94.1309 66.5069 93.9818 66.1998L92.1827 67.0734ZM92.1785 67.0503C92.1792 67.0413 92.1821 67.0345 92.1848 67.0304L93.8477 68.1416C94.037 67.8584 94.15 67.5304 94.1737 67.189L92.1785 67.0503ZM92.1848 67.0304C92.1875 67.0264 92.1891 67.026 92.1876 67.0268L93.0991 68.8071C93.4001 68.653 93.6585 68.4247 93.8477 68.1416L92.1848 67.0304ZM92.1876 67.0268C92.1859 67.0277 92.1823 67.0289 92.1776 67.0288L92.1266 69.0281C92.4636 69.0367 92.7982 68.9611 93.0991 68.8071L92.1876 67.0268ZM92.1785 67.0288C88.0561 66.9199 79.2629 66.5677 74.9959 66.5677V68.5677C79.2301 68.5677 87.9394 68.9176 92.1257 69.0281L92.1785 67.0288ZM74.9959 66.5677C70.7293 66.5677 61.9335 66.9285 57.807 67.0373L57.8597 69.0366C62.0544 68.926 70.7612 68.5677 74.9959 68.5677V66.5677ZM57.8078 67.0373C57.8031 67.0374 57.7996 67.0363 57.7979 67.0354L56.8864 68.8156C57.1872 68.9696 57.5219 69.0452 57.8588 69.0366L57.8078 67.0373ZM57.7979 67.0354C57.7963 67.0346 57.798 67.0349 57.8006 67.0389L56.1378 68.1502C56.3269 68.4332 56.5854 68.6615 56.8864 68.8156L57.7979 67.0354ZM57.8006 67.0389C57.8034 67.043 57.8063 67.0499 57.8069 67.0589L55.8117 67.1976C55.8355 67.539 55.9485 67.8669 56.1378 68.1502L57.8006 67.0389ZM57.8069 67.0589C57.8075 67.0679 57.8056 67.076 57.8028 67.082L56.0036 66.2084C55.8545 66.5154 55.788 66.8561 55.8117 67.1976L57.8069 67.0589ZM57.8029 67.0817C57.8366 67.0121 57.8971 66.8917 57.9459 66.7835L56.123 65.9608C56.0893 66.0354 56.0573 66.0978 56.0035 66.2086L57.8029 67.0817ZM58.4094 75.0839C56.2981 75.3316 54.1733 75.4539 52.0468 75.45L52.0432 77.45C54.2488 77.454 56.4526 77.3272 58.6425 77.0702L58.4094 75.0839ZM52.045 75.45C51.4553 75.45 50.9351 75.366 50.5705 75.2069C50.2272 75.0571 50.1139 74.8901 50.0761 74.7185L48.123 75.1493C48.339 76.1282 49.0358 76.7193 49.7705 77.0399C50.4839 77.3512 51.3095 77.45 52.045 77.45V75.45ZM50.0753 74.7148C49.9283 74.0605 49.9569 73.7731 50.0161 73.4969L48.0605 73.0778C47.9321 73.6767 47.9232 74.2594 48.1238 75.153L50.0753 74.7148ZM50.0166 73.4946C50.0236 73.4615 50.029 73.4395 50.0333 73.4244C50.0375 73.4095 50.0393 73.4057 50.0379 73.4093C50.0362 73.4132 50.0307 73.4258 50.0198 73.4434C50.0086 73.4615 49.9934 73.4819 49.9742 73.5023C49.9548 73.5227 49.9354 73.5388 49.9183 73.5505C49.9016 73.562 49.8906 73.5671 49.889 73.5678C49.8878 73.5683 49.8961 73.5646 49.9175 73.5588C49.9389 73.5529 49.9714 73.5457 50.0175 73.5386L49.7168 71.5614C49.2849 71.627 48.8517 71.7787 48.5215 72.1276C48.202 72.4652 48.1065 72.8605 48.06 73.0801L50.0166 73.4946ZM50.0155 73.5389C51.3831 73.3338 52.0667 73.5565 54.7856 74.3375L55.3377 72.4152C52.7358 71.6678 51.6016 71.2787 49.7188 71.5611L50.0155 73.5389ZM54.7861 74.3376C56.455 74.8161 57.6159 75.4427 58.2306 75.8952L59.4163 74.2846C58.5808 73.6695 57.1964 72.9481 55.3373 72.415L54.7861 74.3376ZM58.2373 75.9C57.9731 75.7089 58.0094 75.4466 58.0269 75.3869C58.047 75.3187 58.1552 75.103 58.448 75.0801L58.6039 77.074C59.3643 77.0146 59.8032 76.4369 59.946 75.95C60.0864 75.4717 60.0376 74.7341 59.4097 74.2797L58.2373 75.9ZM86.0921 85.0769C84.5201 85.2516 81.3318 85.1866 75.0334 85.1866V87.1866C81.2018 87.1866 84.5944 87.2556 86.3129 87.0647L86.0921 85.0769ZM75.0334 85.1866C68.7349 85.1866 65.5479 85.2516 63.9759 85.0769L63.755 87.0647C65.4735 87.2556 68.8649 87.1866 75.0334 87.1866V85.1866ZM63.9732 85.0766C63.3271 85.0066 62.5882 84.6582 62.2018 84.2583C62.0153 84.0652 61.9915 83.9456 61.9898 83.9187C61.9892 83.9097 61.9889 83.8947 62.0029 83.8636C62.0187 83.8282 62.0606 83.756 62.1676 83.655L60.7951 82.2003C60.2593 82.7058 59.9497 83.3393 59.9937 84.0435C60.0352 84.7079 60.3814 85.2524 60.7634 85.6479C61.5141 86.425 62.7061 86.951 63.7577 87.065L63.9732 85.0766ZM62.1639 83.6585C62.4904 83.3535 63.1377 83.0067 64.1686 82.6866C65.1746 82.3742 66.4516 82.1156 67.9427 81.9271L67.6919 79.9429C66.1263 80.1408 64.7272 80.419 63.5755 80.7766C62.4486 81.1265 61.4562 81.5829 60.7988 82.1968L62.1639 83.6585ZM67.9427 81.9271C71.0053 81.54 72.2397 81.35 75.0209 81.35V79.35C72.0961 79.35 70.7427 79.5573 67.6919 79.9429L67.9427 81.9271ZM75.0209 81.35C77.8107 81.35 78.9227 81.4659 82.0803 81.9258L82.3686 79.9467C79.1502 79.4779 77.9369 79.35 75.0209 79.35V81.35ZM82.0803 81.9258C83.6455 82.1538 84.9902 82.4347 86.0169 82.7504C86.5304 82.9082 86.9452 83.069 87.2602 83.2263C87.5866 83.3893 87.7483 83.5204 87.8125 83.5927L89.3082 82.265C89.003 81.9211 88.5864 81.6531 88.1537 81.437C87.7096 81.2152 87.1843 81.0169 86.6047 80.8387C85.4452 80.4822 83.9913 80.183 82.3686 79.9467L82.0803 81.9258ZM87.8183 83.5992C88.0106 83.8121 88.0035 83.9243 88.0017 83.9497C87.998 84.0001 87.966 84.1215 87.7973 84.2994C87.4412 84.6751 86.7464 85.0067 86.0848 85.0851L86.3202 87.0712C87.3551 86.9485 88.5131 86.4513 89.2487 85.6755C89.6258 85.2778 89.9494 84.7428 89.9964 84.0943C90.0453 83.4208 89.7839 82.7915 89.3024 82.2585L87.8183 83.5992ZM87.2025 86.0781V86.0708H85.2025V86.0781H87.2025ZM99.9148 74.7211C99.878 74.8912 99.7666 75.0572 99.4223 75.2068C99.0566 75.3657 98.5351 75.4488 97.9467 75.4488V77.4488C98.6786 77.4488 99.5048 77.3515 100.219 77.0412C100.955 76.7215 101.656 76.1294 101.87 75.1442L99.9148 74.7211ZM97.9465 75.4488C95.7767 75.4493 93.6087 75.3269 91.4536 75.0822L91.228 77.0695C93.4582 77.3226 95.7017 77.4493 97.947 77.4488L97.9465 75.4488ZM91.4328 75.0801C91.6269 75.098 91.7645 75.1949 91.8386 75.2766C91.9077 75.3528 91.9337 75.4249 91.9437 75.472C91.9616 75.5556 91.9549 75.7455 91.777 75.882L90.5595 74.2953C89.994 74.7292 89.8823 75.395 89.9877 75.8891C90.0829 76.3357 90.4576 76.9985 91.2488 77.0716L91.4328 75.0801ZM91.7766 75.8823C92.3639 75.4321 93.5268 74.8184 95.206 74.3363L94.6541 72.4139C92.8103 72.9433 91.4002 73.6508 90.5598 74.295L91.7766 75.8823ZM95.2061 74.3362C97.8995 73.5626 99.2057 73.3393 100.252 73.5416L100.632 71.5779C99.0432 71.2708 97.2814 71.6593 94.654 72.414L95.2061 74.3362ZM100.252 73.5415C100.099 73.5119 100.02 73.4224 99.9994 73.3932C99.9877 73.377 99.981 73.3634 99.9763 73.3509C99.9723 73.3406 99.9626 73.3127 99.9579 73.2636L101.949 73.0747C101.921 72.7845 101.806 72.4798 101.622 72.2241C101.431 71.9585 101.106 71.6697 100.632 71.578L100.252 73.5415ZM99.9645 73.3177C100.034 73.7832 100.018 74.2572 99.9159 74.7172L101.868 75.1505C102.024 74.4507 102.049 73.7292 101.942 73.0206L99.9645 73.3177ZM101.892 74.9339V74.9327H99.8922V74.9339H101.892Z" fill="#0066FF" mask="url(#path-2-inside-1_362_733)"/>
<circle cx="225" cy="75" r="74.5" stroke="#0066FF"/>
<path d="M232.746 61.6295L232.746 61.6296L232.757 61.6357C232.963 61.748 233.143 61.9006 233.288 62.0844C233.433 62.2682 233.539 62.4794 233.6 62.7053C233.662 62.9312 233.676 63.1671 233.644 63.3989C233.612 63.6306 233.533 63.8534 233.412 64.0539L233.412 64.0539L233.407 64.0618L220.319 86.7063C220.319 86.7069 220.319 86.7075 220.318 86.7081C220.159 86.9772 219.933 87.2006 219.661 87.3563C219.389 87.5123 219.082 87.5951 218.768 87.5964L218.758 87.5965L218.749 87.5969C218.448 87.6097 218.151 87.533 217.894 87.3764L217.887 87.3723L217.88 87.3685C217.677 87.2528 217.498 87.098 217.355 86.9131C217.211 86.7281 217.106 86.5165 217.045 86.2907C216.984 86.0648 216.968 85.8291 216.999 85.5971C217.029 85.3652 217.105 85.1415 217.223 84.9391L217.223 84.9384L230.313 62.29L230.315 62.287C230.43 62.0835 230.585 61.905 230.77 61.7617C230.955 61.6183 231.167 61.5131 231.393 61.4519C231.619 61.3908 231.855 61.375 232.087 61.4055C232.32 61.436 232.543 61.5121 232.746 61.6295ZM222.45 68.7273L222.45 68.7475L222.451 68.7677C222.534 70.7292 221.837 72.644 220.51 74.0921C219.189 75.5346 217.351 76.3969 215.397 76.4916C213.439 76.3968 211.597 75.5354 210.27 74.0935C208.938 72.6459 208.232 70.7307 208.306 68.7653L208.307 68.7475L208.306 68.7297C208.241 66.7701 208.951 64.8637 210.283 63.4237C211.609 61.9892 213.445 61.1326 215.397 61.0378C217.345 61.1326 219.177 61.99 220.497 63.4251C221.823 64.8657 222.525 66.7716 222.45 68.7273ZM215.339 72.9078L215.397 72.9145L215.454 72.9078C216.46 72.7912 217.38 72.2855 218.018 71.4989C218.645 70.7252 218.949 69.7403 218.869 68.7491C218.96 67.754 218.66 66.7618 218.03 65.9844C217.389 65.1941 216.461 64.6905 215.449 64.5843L215.397 64.5788L215.345 64.5843C214.331 64.6907 213.4 65.192 212.754 65.9797C212.117 66.7562 211.807 67.7492 211.888 68.749C211.818 69.745 212.131 70.7308 212.765 71.5037C213.409 72.2878 214.332 72.7913 215.339 72.9078ZM228.216 80.2385L228.217 80.2183L228.216 80.1981C228.142 78.2424 228.844 76.3365 230.169 74.8959C231.49 73.4608 233.322 72.6034 235.27 72.5086C237.221 72.6034 239.058 73.46 240.384 74.8945C241.716 76.3345 242.426 78.2409 242.36 80.2005L242.36 80.2183L242.36 80.2361C242.435 82.2015 241.729 84.1167 240.397 85.5642C239.07 87.0062 237.228 87.8675 235.27 87.9624C233.316 87.8676 231.478 87.0054 230.157 85.5629C228.83 84.1147 228.132 82.2 228.216 80.2385ZM235.213 84.3786L235.27 84.3853L235.327 84.3786C236.335 84.2621 237.258 83.7586 237.902 82.9745C238.536 82.2016 238.849 81.2157 238.778 80.2198C238.86 79.22 238.55 78.227 237.913 77.4505C237.267 76.6628 236.336 76.1614 235.322 76.0551L235.267 76.0493L235.213 76.0557C234.207 76.1722 233.286 76.678 232.649 77.4645C232.021 78.239 231.717 79.225 231.798 80.2171C231.717 81.2093 232.021 82.1953 232.649 82.9697C233.286 83.7563 234.207 84.262 235.213 84.3786Z" fill="#0066FF" stroke="#0066FF"/>
<path d="M225.318 47.5139L225.333 47.5144L225.349 47.5139C232.752 47.2809 239.944 49.9937 245.347 55.0565C250.746 60.1155 253.918 67.1078 254.166 74.5C253.918 81.8922 250.746 88.8845 245.347 93.9435C239.944 99.0063 232.752 101.719 225.349 101.486L225.333 101.486L225.318 101.486C217.915 101.719 210.722 99.0063 205.319 93.9435C199.92 88.8845 196.749 81.8922 196.5 74.5C196.749 67.1078 199.92 60.1155 205.319 55.0565C210.722 49.9937 217.915 47.2809 225.318 47.5139ZM200.084 74.4796L200.083 74.5L200.084 74.5204C200.347 80.9652 203.153 87.0436 207.888 91.4258C212.619 95.804 218.891 98.1331 225.333 97.9052C231.776 98.1331 238.048 95.804 242.779 91.4258C247.514 87.0436 250.32 80.9652 250.583 74.5204L250.584 74.5L250.583 74.4796C250.32 68.0348 247.514 61.9564 242.779 57.5742C238.048 53.196 231.776 50.8669 225.333 51.0948C218.891 50.8669 212.619 53.196 207.888 57.5742C203.153 61.9564 200.347 68.0348 200.084 74.4796Z" fill="#0066FF" stroke="#0066FF"/>
<circle cx="375" cy="75" r="74.5" stroke="#0066FF"/>
<path d="M348.209 57.2093C349.944 55.4746 352.297 54.5 354.75 54.5H395.25C396.465 54.5 397.668 54.7393 398.79 55.2041C399.912 55.669 400.932 56.3503 401.791 57.2093C402.65 58.0682 403.331 59.0879 403.796 60.2102C404.261 61.3324 404.5 62.5353 404.5 63.75V67H345.5V63.75C345.5 61.2967 346.475 58.944 348.209 57.2093ZM345.5 86.25V72.5H404.5V86.25C404.5 87.4647 404.261 88.6676 403.796 89.7898C403.331 90.9121 402.65 91.9318 401.791 92.7907C400.932 93.6497 399.912 94.331 398.79 94.7959C397.668 95.2607 396.465 95.5 395.25 95.5H354.75C352.297 95.5 349.944 94.5254 348.209 92.7907C346.475 91.056 345.5 88.7033 345.5 86.25ZM393.75 82H386.25C385.521 82 384.821 82.2897 384.305 82.8055C383.79 83.3212 383.5 84.0207 383.5 84.75C383.5 85.4793 383.79 86.1788 384.305 86.6945C384.821 87.2103 385.521 87.5 386.25 87.5H393.75C394.479 87.5 395.179 87.2103 395.695 86.6945C396.21 86.1788 396.5 85.4793 396.5 84.75C396.5 84.0207 396.21 83.3212 395.695 82.8055C395.179 82.2897 394.479 82 393.75 82Z" fill="#0066FF" stroke="#0066FF"/>
<circle cx="525" cy="75" r="74.5" stroke="#0066FF"/>
<path d="M515.25 68.5V68H514.75H506.207L510.229 63.9786L521.409 52.7986L524.5 49.7071L527.591 52.7986L538.771 63.9786L542.793 68H534.25H533.75V68.5V90.75H515.25V68.5ZM524.854 55.5397L524.5 55.1861L524.146 55.5397L516.415 63.2714L515.561 64.125H516.768H519.125V86.375V86.875H519.625H529.375H529.875V86.375V64.125H532.232H533.439L532.585 63.2714L524.854 55.5397ZM515.817 97.1925C516.181 96.8291 516.674 96.625 517.188 96.625H531.812C532.326 96.625 532.819 96.8291 533.183 97.1925C533.546 97.5558 533.75 98.0486 533.75 98.5625C533.75 99.0764 533.546 99.5692 533.183 99.9325C532.819 100.296 532.326 100.5 531.812 100.5H517.188C516.674 100.5 516.181 100.296 515.817 99.9325C515.454 99.5692 515.25 99.0764 515.25 98.5625C515.25 98.0486 515.454 97.5558 515.817 97.1925Z" fill="#0066FF" stroke="white"/>
<g clip-path="url(#clip0_362_733)">
<path d="M763.8 0H604.2C601.88 0 600 1.86548 600 4.16667V45.8333C600 48.1345 601.88 50 604.2 50H763.8C766.12 50 768 48.1345 768 45.8333V4.16667C768 1.86548 766.12 0 763.8 0Z" fill="#151515"/>
<path fill-rule="evenodd" clip-rule="evenodd" d="M635.374 14.7584C638.935 14.7584 641.212 18.1889 641.212 18.1889C641.212 18.1889 637.74 20.0667 637.74 24.1417C637.74 28.9792 642.104 30.3875 642.104 30.3875C642.104 30.3875 638.66 38.5209 634.79 38.5209C632.614 38.5209 632.469 37.275 629.578 37.275C627.066 37.275 626.221 38.5195 624.308 38.5195C620.657 38.5195 615.942 30.5889 615.942 24.1375C615.942 17.4389 620.716 14.7556 623.709 14.7556C626.337 14.7556 627.433 16.2973 629.547 16.2973C631.329 16.2973 632.732 14.7556 635.374 14.7556V14.7584ZM634.761 7.92505C635.283 11.2112 632.291 15.2723 628.713 15.1403C628.188 10.9639 632.045 8.15005 634.758 7.92922L634.761 7.92505Z" fill="white"/>
<mask id="mask0_362_733" style="mask-type:luminance" maskUnits="userSpaceOnUse" x="652" y="8" width="101" height="37">
<path d="M652.73 8.12646H752.942V44.5098H652.73V8.12785V8.12646Z" fill="white"/>
</mask>
<g mask="url(#mask0_362_733)">
<path fill-rule="evenodd" clip-rule="evenodd" d="M661.961 32.6029L660.547 28.2196C660.397 27.7752 660.116 26.7196 659.704 25.0599H659.654C659.486 25.7738 659.223 26.8279 658.859 28.2224L657.469 32.6071H661.963L661.961 32.6029ZM666.851 39.6029H663.995L662.433 34.6724H657L655.509 39.6029H652.73L658.115 22.8154H661.44L666.851 39.6043V39.6029Z" fill="white"/>
</g>
<mask id="mask1_362_733" style="mask-type:luminance" maskUnits="userSpaceOnUse" x="652" y="8" width="101" height="37">
<path d="M652.73 8.12646H752.942V44.5098H652.73" fill="white"/>
</mask>
<g mask="url(#mask1_362_733)">
<path fill-rule="evenodd" clip-rule="evenodd" d="M677.944 33.5001C677.944 32.3223 677.68 31.3501 677.151 30.5862C676.572 29.7904 675.793 29.3917 674.817 29.3917C674.157 29.3917 673.557 29.614 673.018 30.0515C672.479 30.4936 672.108 31.1042 671.964 31.7834C671.88 32.1167 671.838 32.3862 671.838 32.6029V34.6223C671.838 35.5029 672.104 36.2473 672.645 36.8542C673.182 37.4598 673.881 37.764 674.74 37.764C675.748 37.764 676.535 37.3723 677.098 36.5945C677.661 35.8126 677.942 34.7834 677.942 33.5042M680.672 33.407C680.672 35.4654 680.116 37.0917 679.002 38.2876C678.004 39.3487 676.762 39.8806 675.284 39.8806C673.688 39.8806 672.54 39.3084 671.84 38.1626V44.5154H669.166V31.482C669.166 30.1862 669.132 28.8598 669.068 27.5001H671.424L671.574 29.4223H671.624C672.52 27.9751 673.874 27.2515 675.694 27.2515C677.116 27.2515 678.303 27.8167 679.254 28.9459C680.203 30.0779 680.679 31.564 680.679 33.407" fill="white"/>
</g>
<mask id="mask2_362_733" style="mask-type:luminance" maskUnits="userSpaceOnUse" x="652" y="8" width="101" height="37">
<path d="M652.73 8.12646H752.942V44.5098H652.73" fill="white"/>
</mask>
<g mask="url(#mask2_362_733)">
<path fill-rule="evenodd" clip-rule="evenodd" d="M691.818 33.5001C691.818 32.3223 691.552 31.3501 691.02 30.5862C690.441 29.7904 689.666 29.3917 688.69 29.3917C688.028 29.3917 687.43 29.614 686.89 30.0515C686.35 30.4933 685.979 31.1042 685.837 31.7834C685.753 32.1167 685.711 32.3862 685.711 32.6029V34.6223C685.711 35.5029 685.98 36.2473 686.516 36.8542C687.053 37.4584 687.753 37.764 688.616 37.764C689.624 37.764 690.412 37.3723 690.972 36.5945C691.532 35.8126 691.816 34.7834 691.816 33.5042M694.546 33.407C694.546 35.4654 693.986 37.0917 692.873 38.2876C691.874 39.3487 690.633 39.8806 689.155 39.8806C687.555 39.8806 686.407 39.3084 685.711 38.1626V44.5154H683.028V31.482C683.028 30.1862 682.995 28.8598 682.93 27.5001H685.287L685.436 29.4223H685.487C686.38 27.9751 687.737 27.2515 689.558 27.2515C690.979 27.2515 692.168 27.8167 693.12 28.9459C694.067 30.0779 694.546 31.564 694.546 33.407Z" fill="white"/>
</g>
<path fill-rule="evenodd" clip-rule="evenodd" d="M710.06 34.8946C710.06 36.3251 709.56 37.4862 708.571 38.3834C707.482 39.3598 705.963 39.8501 704.014 39.8501C702.215 39.8501 700.772 39.5001 699.683 38.8043L700.303 36.5612C701.479 37.2584 702.773 37.6071 704.177 37.6071C705.188 37.6071 705.973 37.3807 706.534 36.9237C707.099 36.4654 707.381 35.8571 707.381 35.0946C707.381 34.414 707.148 33.8418 706.686 33.3765C706.221 32.9126 705.454 32.4793 704.378 32.0821C701.447 30.9848 699.982 29.3834 699.982 27.2737C699.982 25.8959 700.5 24.7696 701.532 23.8848C702.565 23.0071 703.936 22.5654 705.64 22.5654C707.166 22.5654 708.433 22.8321 709.441 23.3626L708.769 25.5571C707.82 25.0404 706.75 24.7834 705.554 24.7834C704.607 24.7834 703.865 25.0168 703.334 25.4821C702.889 25.8959 702.662 26.4015 702.662 27.0029C702.662 27.6654 702.92 28.2154 703.432 28.6459C703.88 29.0432 704.692 29.4765 705.864 29.9404C707.306 30.5237 708.363 31.2043 709.042 31.9821C709.724 32.7626 710.064 33.7348 710.064 34.8946M718.945 29.5196H715.991V35.3946C715.991 36.8918 716.512 37.6376 717.555 37.6376C718.035 37.6376 718.434 37.5959 718.745 37.5126L718.821 39.5543C718.294 39.7529 717.6 39.8529 716.739 39.8529C715.679 39.8529 714.853 39.5279 714.257 38.8807C713.66 38.2307 713.361 37.1446 713.361 35.6168V29.5098H711.602V27.4959H713.362V25.2793L715.994 24.4821V27.4959H718.948V29.5182L718.945 29.5196ZM729.468 33.5154C729.468 32.4071 729.23 31.4557 728.751 30.6598C728.188 29.6987 727.383 29.2182 726.343 29.2182C725.269 29.2182 724.445 29.6987 723.886 30.6598C723.404 31.4557 723.165 32.4237 723.165 33.5654C723.165 34.6765 723.403 35.6293 723.886 36.4237C724.466 37.3848 725.272 37.8654 726.322 37.8654C727.344 37.8654 728.146 37.3751 728.73 36.3987C729.22 35.5862 729.468 34.6265 729.468 33.5154ZM732.247 33.4543C732.247 35.3154 731.715 36.8432 730.656 38.0376C729.546 39.2668 728.075 39.8807 726.238 39.8807C724.466 39.8807 723.056 39.2904 722.004 38.114C720.957 36.9334 720.431 35.4473 720.431 33.6557C720.431 31.7807 720.974 30.2432 722.055 29.0487C723.14 27.8543 724.6 27.2543 726.437 27.2543C728.206 27.2543 729.629 27.8459 730.704 29.0223C731.733 30.1668 732.244 31.6432 732.244 33.4529M740.96 29.8668C740.681 29.8157 740.398 29.7906 740.115 29.7918C739.171 29.7918 738.443 30.1501 737.931 30.8668C737.483 31.4973 737.262 32.2946 737.262 33.2557V39.6098H734.582V31.314C734.582 29.9209 734.554 28.6473 734.504 27.5029H736.837L736.935 29.8196H737.01C737.294 29.0251 737.738 28.3834 738.349 27.9029C738.907 27.4831 739.587 27.2554 740.287 27.2543C740.532 27.2543 740.755 27.2709 740.953 27.3029L740.956 29.8696L740.96 29.8668ZM750.388 32.2834C750.408 31.4848 750.231 30.7973 749.87 30.214C749.404 29.4668 748.69 29.0932 747.734 29.0932C746.856 29.0932 746.143 29.4571 745.6 30.1904C745.155 30.7709 744.889 31.4682 744.808 32.2807L750.388 32.2834ZM752.944 32.9807C752.944 33.4626 752.912 33.8696 752.846 34.2029H744.808C744.836 35.3973 745.228 36.3112 745.972 36.9418C746.65 37.5029 747.526 37.7848 748.602 37.7848C749.792 37.7848 750.878 37.5973 751.855 37.2154L752.275 39.0807C751.134 39.5807 749.783 39.8307 748.232 39.8307C746.362 39.8307 744.893 39.2779 743.825 38.1751C742.761 37.0709 742.225 35.5862 742.225 33.7279C742.225 31.9043 742.72 30.3848 743.714 29.1723C744.756 27.8779 746.164 27.2307 747.932 27.2307C749.671 27.2307 750.987 27.8779 751.88 29.1723C752.587 30.1973 752.944 31.4682 752.944 32.9779V32.9807ZM658.267 13.3668L657.571 11.214C657.498 10.9918 657.364 10.4779 657.156 9.65844H657.131C657.047 10.0112 656.924 10.5265 656.739 11.214L656.057 13.3668H658.267ZM660.668 16.8043H659.268L658.498 14.3807H655.826L655.096 16.8057H653.726L656.372 8.55566H658.008L660.668 16.8043ZM667.29 10.8571L665.043 16.8043H663.762L661.592 10.8571H663.006L664.019 14.0029C664.19 14.5307 664.336 15.0307 664.445 15.5071H664.483C664.581 15.0793 664.726 14.5765 664.908 14.0029L665.906 10.8557H667.285L667.29 10.8571ZM671.882 13.8432C670.42 13.8432 669.688 14.1987 669.688 15.0418C669.688 15.6668 670.066 15.9723 670.591 15.9723C671.263 15.9723 671.883 15.4584 671.883 14.7612V13.8446L671.882 13.8432ZM672.068 16.8057L671.97 16.1209H671.932C671.53 16.6723 670.945 16.9404 670.2 16.9404C669.136 16.9404 668.38 16.1946 668.38 15.1904C668.38 13.7209 669.649 12.9626 671.844 12.9626V12.8515C671.844 12.0682 671.429 11.6765 670.612 11.6765C670.063 11.6667 669.523 11.8206 669.063 12.1182L668.795 11.2487C669.345 10.9057 670.027 10.7348 670.833 10.7348C672.381 10.7348 673.163 11.5543 673.163 13.1959V15.3848C673.163 15.9876 673.188 16.4543 673.247 16.8071H672.064L672.068 16.8057Z" fill="white"/>
<mask id="mask3_362_733" style="mask-type:luminance" maskUnits="userSpaceOnUse" x="652" y="8" width="101" height="37">
<path d="M652.73 8.12646H752.942V44.5098H652.73V8.12785V8.12646Z" fill="white"/>
</mask>
<g mask="url(#mask3_362_733)">
<path fill-rule="evenodd" clip-rule="evenodd" d="M676.784 16.8071H675.468V10.8571H676.784V16.8071ZM676.101 9.87656C675.997 9.87679 675.893 9.8562 675.797 9.81602C675.701 9.77585 675.614 9.7169 675.541 9.64267C675.468 9.56845 675.411 9.48046 675.373 9.38392C675.335 9.28739 675.317 9.18429 675.32 9.08072C675.32 8.63072 675.674 8.29878 676.126 8.29878C676.577 8.29878 676.943 8.63211 676.93 9.0835C676.93 9.56128 676.59 9.87934 676.101 9.87934V9.87656ZM680.441 16.8071H679.125V8.12656H680.441V16.8071ZM685.859 13.8432C684.393 13.8432 683.661 14.1988 683.661 15.0418C683.661 15.6668 684.039 15.9724 684.564 15.9724C685.232 15.9724 685.855 15.4585 685.855 14.7613V13.8446L685.859 13.8432ZM686.041 16.8057L685.943 16.121H685.907C685.504 16.6724 684.918 16.9404 684.174 16.9404C683.114 16.9404 682.356 16.1946 682.356 15.1904C682.356 13.721 683.625 12.9627 685.821 12.9627V12.8516C685.821 12.0682 685.406 11.6766 684.589 11.6766C684.001 11.6766 683.49 11.8238 683.041 12.1182L682.775 11.2474C683.324 10.9071 684.007 10.7335 684.812 10.7335C686.36 10.7335 687.143 11.5529 687.143 13.1974V15.3849C687.143 15.9863 687.167 16.4516 687.227 16.8057H686.041ZM692.21 11.7738C691.451 11.7738 690.756 12.4349 690.756 13.3529V14.3946C690.756 15.2141 691.379 15.8877 692.184 15.8877C693.173 15.8877 693.759 15.0793 693.759 13.7946C693.759 12.5946 693.148 11.7738 692.208 11.7738M692.474 16.9404C691.634 16.9404 691.011 16.5849 690.608 15.8877H690.583L690.506 16.8043H689.386C689.419 16.3293 689.432 15.7904 689.432 15.2029V8.12378H690.751V11.7238H690.775C691.164 11.0627 691.797 10.7321 692.665 10.7321C694.093 10.7321 695.092 11.9585 695.092 13.746C695.092 15.5932 693.982 16.9404 692.47 16.9404M698.364 16.8071H697.048V8.12656H698.364V16.8071ZM704.325 13.2071C704.325 12.2904 703.863 11.6404 703.02 11.6404C702.262 11.6404 701.668 12.3016 701.578 13.2071H704.325ZM705.533 14.1488H701.578C701.606 15.2766 702.348 15.9127 703.445 15.9127C704.033 15.9127 704.567 15.8127 705.041 15.6307L705.246 16.5474C704.686 16.7932 704.028 16.9154 703.258 16.9154C701.406 16.9154 700.309 15.7404 700.309 13.9154C700.309 12.0932 701.431 10.721 703.113 10.721C704.621 10.721 705.577 11.8488 705.577 13.5502C705.58 13.7793 705.567 13.9877 705.531 14.1474L705.533 14.1488ZM713.569 11.7002C712.617 11.7002 712.006 12.5932 712.006 13.8418C712.006 15.0641 712.631 15.9585 713.56 15.9585C714.484 15.9585 715.107 15.0029 715.107 13.8141C715.107 12.6057 714.496 11.6988 713.571 11.6988M713.518 16.9404C711.786 16.9404 710.662 15.6432 710.662 13.8807C710.662 12.0446 711.81 10.7335 713.618 10.7335C715.322 10.7335 716.472 11.9696 716.472 13.7863C716.472 15.6474 715.289 16.9432 713.518 16.9432M723.556 16.8085H722.24V13.3918C722.24 12.3404 721.836 11.8127 721.043 11.8127C720.263 11.8127 719.724 12.4863 719.724 13.271V16.8085H718.408V12.5585C718.408 12.0335 718.394 11.4696 718.359 10.8585H719.518L719.58 11.7752H719.616C719.966 11.1363 720.69 10.7335 721.492 10.7335C722.738 10.7335 723.554 11.6877 723.554 13.2418V16.8057L723.556 16.8085ZM732.173 11.8502H730.724V14.7391C730.724 15.4752 730.978 15.8418 731.489 15.8418C731.722 15.8418 731.918 15.8168 732.077 15.7807L732.112 16.7849C731.856 16.8821 731.513 16.9321 731.09 16.9321C730.05 16.9321 729.431 16.3571 729.431 14.8488V11.8488H728.568V10.8571H729.431V9.76684L730.724 9.37378V10.8571H732.173V11.8474V11.8502ZM739.149 16.8085H737.83V13.4196C737.83 12.3529 737.427 11.8141 736.634 11.8141C735.951 11.8141 735.318 12.2793 735.318 13.2224V16.8113H734V8.12656H735.318V11.7002H735.346C735.758 11.0516 736.354 10.7335 737.124 10.7335C738.382 10.7335 739.149 11.7154 739.149 13.2696V16.8085ZM744.672 13.2113C744.672 12.2946 744.21 11.6418 743.367 11.6418C742.611 11.6418 742.016 12.3043 741.929 13.2113H744.673H744.672ZM745.88 14.1516H741.926C741.952 15.2793 742.694 15.9154 743.791 15.9154C744.379 15.9154 744.914 15.8154 745.387 15.6335L745.594 16.5502C745.034 16.796 744.376 16.9182 743.606 16.9182C741.751 16.9182 740.655 15.7432 740.655 13.9182C740.655 12.096 741.775 10.7238 743.459 10.7238C744.971 10.7238 745.923 11.8516 745.923 13.5529C745.929 13.7821 745.916 13.9904 745.881 14.1502L745.88 14.1516Z" fill="white"/>
</g>
</g>
<g clip-path="url(#clip1_362_733)">
<path d="M763.8 100H604.2C601.88 100 600 101.865 600 104.167V145.833C600 148.135 601.88 150 604.2 150H763.8C766.12 150 768 148.135 768 145.833V104.167C768 101.865 766.12 100 763.8 100Z" fill="#151515"/>
<path d="M634.944 120.293L616.286 110.071C615.757 109.783 615.27 109.714 614.875 109.839L630.156 125.061L634.944 120.29" fill="url(#paint0_linear_362_733)"/>
<path fill-rule="evenodd" clip-rule="evenodd" d="M634.968 129.858L641.338 126.369C642.629 125.658 642.629 124.503 641.338 123.794L634.944 120.294L630.156 125.064L634.968 129.858Z" fill="url(#paint1_linear_362_733)"/>
<path d="M614.875 109.839C614.305 110.014 613.937 110.589 613.937 111.45L613.943 138.708C613.943 139.564 614.298 140.128 614.85 140.317L630.156 125.064L614.875 109.839Z" fill="url(#paint2_linear_362_733)"/>
<path d="M614.85 140.319C615.247 140.453 615.746 140.389 616.286 140.094L634.965 129.858L630.156 125.067L614.85 140.319Z" fill="url(#paint3_linear_362_733)"/>
<path fill-rule="evenodd" clip-rule="evenodd" d="M657.361 108.44C658.537 108.44 659.352 108.965 659.881 109.503L659.055 110.424C658.629 110.014 658.163 109.732 657.375 109.732C655.874 109.732 654.866 110.885 654.866 112.765C654.866 114.674 655.77 115.826 657.464 115.826C657.931 115.826 658.395 115.699 658.668 115.454V113.649H657.075V112.435H660.011V116.121C659.43 116.658 658.435 117.118 657.284 117.118C655.033 117.118 653.326 115.583 653.326 112.806C653.326 110.065 655.084 108.44 657.358 108.44M665.573 113.264C665.573 112.267 665.149 111.667 664.282 111.667C663.532 111.667 662.885 112.215 662.756 113.264H665.573ZM664.243 110.528C665.962 110.528 666.868 111.754 666.868 113.507C666.868 113.79 666.84 114.044 666.804 114.199H662.769C662.895 115.338 663.623 115.979 664.645 115.979C665.185 115.979 665.65 115.813 666.115 115.518L666.619 116.439C666.013 116.835 665.251 117.117 664.449 117.117C662.689 117.117 661.32 115.901 661.32 113.828C661.321 111.778 662.756 110.528 664.243 110.528ZM668.317 111.844H667.414V110.744L668.397 110.681L668.579 108.964H669.819V110.681H671.435V111.844H669.819V114.839C669.819 115.581 670.102 115.939 670.711 115.939C670.931 115.939 671.19 115.875 671.369 115.8L671.63 116.886C671.28 117.001 670.84 117.117 670.336 117.117C668.862 117.117 668.32 116.194 668.32 114.839V111.844H668.317Z" fill="#C64848"/>
<mask id="mask4_362_733" style="mask-type:luminance" maskUnits="userSpaceOnUse" x="651" y="107" width="106" height="39">
<path d="M651.503 107.903H756.422V145.125H651.503V107.903Z" fill="#E7E7E7"/>
</mask>
<g mask="url(#mask4_362_733)">
<path fill-rule="evenodd" clip-rule="evenodd" d="M675.421 110.681H676.908V116.964H675.421V110.681ZM675.253 108.747C675.253 108.247 675.641 107.903 676.17 107.903C676.702 107.903 677.087 108.25 677.087 108.747C677.087 109.233 676.7 109.581 676.168 109.581C675.636 109.581 675.25 109.233 675.25 108.747H675.253ZM679.03 111.844H678.124V110.744L679.108 110.681L679.29 108.964H680.531V110.681H682.146V111.844H680.531V114.839C680.531 115.581 680.814 115.939 681.423 115.939C681.644 115.939 681.901 115.875 682.083 115.8L682.342 116.886C681.992 117.001 681.553 117.117 681.049 117.117C679.575 117.117 679.033 116.194 679.033 114.839V111.844H679.03ZM688.729 115.914C689.662 115.914 690.23 115.081 690.23 113.828C690.23 112.561 689.662 111.731 688.729 111.731C687.798 111.731 687.245 112.561 687.245 113.828C687.245 115.082 687.798 115.914 688.729 115.914ZM688.729 110.525C690.32 110.525 691.756 111.729 691.756 113.828C691.756 115.914 690.32 117.119 688.729 117.119C687.151 117.119 685.719 115.914 685.719 113.828C685.719 111.731 687.151 110.526 688.729 110.526M693.233 110.681H694.461L694.564 111.525H694.615C695.185 110.975 695.833 110.525 696.698 110.525C698.056 110.525 698.65 111.435 698.65 113.022V116.964H697.163V113.214C697.163 112.176 696.869 111.794 696.169 111.794C695.612 111.794 695.25 112.061 694.718 112.572V116.964H693.234V110.681H693.233Z" fill="#C64848"/>
</g>
<mask id="mask5_362_733" style="mask-type:luminance" maskUnits="userSpaceOnUse" x="651" y="107" width="106" height="39">
<path d="M651.503 107.903H756.422V145.125H651.503V107.903Z" fill="white"/>
</mask>
<g mask="url(#mask5_362_733)">
<path fill-rule="evenodd" clip-rule="evenodd" d="M727.498 129.753C726.442 129.753 725.678 130.045 725.206 130.624C724.734 131.201 724.492 132.124 724.478 133.388V133.735C724.478 135.171 724.72 136.199 725.206 136.821C725.689 137.44 726.466 137.751 727.537 137.751C728.43 137.751 729.133 137.39 729.637 136.675C730.145 135.961 730.397 134.972 730.397 133.714C730.397 132.439 730.145 131.458 729.636 130.776C729.132 130.093 728.418 129.751 727.497 129.751M727.725 139.047C727.05 139.047 726.437 138.925 725.88 138.679C725.32 138.431 724.836 138.039 724.48 137.545H724.363C724.44 138.142 724.478 138.708 724.478 139.243V143.457H722.913V128.625H724.187L724.403 130.025H724.478C724.881 129.464 725.349 129.063 725.887 128.811C726.464 128.554 727.092 128.427 727.725 128.439C729.097 128.439 730.155 128.901 730.903 129.828C731.645 130.756 732.017 132.06 732.017 133.735C732.017 135.415 731.639 136.721 730.883 137.651C730.123 138.582 729.072 139.047 727.725 139.047ZM735.646 138.861H734.078V124.328H735.646V138.861ZM741.114 137.77C742.09 137.77 742.857 137.506 743.41 136.978C743.968 136.446 744.246 135.704 744.246 134.751V133.831L742.678 133.895C741.432 133.939 740.536 134.131 739.987 134.47C739.436 134.808 739.161 135.339 739.161 136.053C739.161 136.613 739.329 137.039 739.675 137.331C740.018 137.625 740.497 137.77 741.114 137.77ZM744.651 138.863L744.343 137.407H744.266C743.748 138.05 743.234 138.483 742.72 138.708C742.209 138.935 741.568 139.049 740.802 139.049C739.776 139.049 738.972 138.788 738.39 138.265C737.808 137.743 737.516 137.001 737.516 136.033C737.516 133.967 739.185 132.881 742.528 132.783L744.283 132.728V132.089C744.283 131.289 744.108 130.695 743.758 130.311C743.408 129.929 742.848 129.738 742.082 129.738C741.221 129.738 740.248 130.001 739.16 130.522L738.677 129.335C739.187 129.063 739.745 128.849 740.351 128.69C740.949 128.537 741.563 128.459 742.18 128.458C743.412 128.458 744.325 128.728 744.92 129.271C745.513 129.813 745.811 130.679 745.811 131.875V138.861H744.649L744.651 138.863ZM746.723 128.625H748.403L750.668 134.464C751.162 135.797 751.473 136.758 751.592 137.35H751.666C751.75 137.031 751.918 136.489 752.184 135.718C752.443 134.95 753.296 132.583 754.742 128.624H756.422L751.98 140.281C751.537 141.433 751.024 142.25 750.434 142.733C749.846 143.217 749.124 143.456 748.27 143.456C747.791 143.456 747.318 143.4 746.853 143.296V142.053C747.199 142.131 747.587 142.167 748.015 142.167C749.089 142.167 749.856 141.567 750.315 140.375L750.895 138.917L746.723 128.621V128.625ZM697.798 135.014C698.297 134.52 698.34 133.839 698.34 133.451C698.34 131.91 697.409 129.511 695.614 129.511C695.052 129.511 694.445 129.792 694.1 130.22C693.731 130.668 693.624 131.247 693.624 131.803C693.624 133.238 694.469 135.617 696.328 135.617C696.877 135.604 697.401 135.389 697.798 135.014ZM697.173 139.083C697 139.061 696.893 139.061 696.677 139.061C696.481 139.061 695.312 139.103 694.405 139.408C693.929 139.575 692.543 140.092 692.543 141.61C692.543 143.128 694.038 144.221 696.351 144.221C698.428 144.221 699.532 143.238 699.532 141.91C699.532 140.815 698.818 140.239 697.174 139.083H697.173ZM698.708 129.576C699.208 129.982 700.244 130.84 700.244 132.465C700.244 134.051 699.334 134.801 698.428 135.507C698.148 135.782 697.821 136.088 697.821 136.558C697.821 137.028 698.147 137.285 698.385 137.478L699.165 138.075C700.117 138.871 700.981 139.597 700.981 141.075C700.981 143.089 699.009 145.124 695.291 145.124C692.155 145.124 690.643 143.643 690.643 142.06C690.643 141.288 691.028 140.199 692.309 139.446C693.647 138.632 695.466 138.526 696.439 138.46C696.134 138.076 695.789 137.668 695.789 137.008C695.789 136.64 695.897 136.425 696.005 136.168C695.767 136.19 695.529 136.21 695.312 136.21C693.022 136.21 691.724 134.518 691.724 132.849C691.724 131.865 692.177 130.772 693.107 129.981C694.339 128.975 695.809 128.803 696.981 128.803H701.437L700.051 129.574H698.71L698.708 129.576ZM687.788 137.01C688.306 136.326 688.437 135.468 688.437 134.635C688.437 132.754 687.534 129.163 684.853 129.163C684.141 129.163 683.429 129.44 682.911 129.89C682.071 130.64 681.917 131.581 681.917 132.501C681.917 134.617 682.975 138.101 685.589 138.101C686.429 138.101 687.297 137.695 687.79 137.011M685.092 138.745C681.659 138.745 679.824 136.092 679.824 133.696C679.824 130.897 682.134 128.501 685.417 128.501C688.591 128.501 690.579 130.96 690.579 133.549C690.579 136.071 688.613 138.743 685.091 138.743M676.084 137.01C676.602 136.326 676.731 135.468 676.731 134.635C676.731 132.754 675.824 129.163 673.147 129.163C672.433 129.163 671.719 129.44 671.204 129.89C670.358 130.64 670.21 131.581 670.21 132.501C670.21 134.617 671.267 138.101 673.881 138.101C674.724 138.101 675.586 137.695 676.084 137.011M673.385 138.745C669.95 138.745 668.113 136.092 668.113 133.696C668.113 130.897 670.426 128.501 673.709 128.501C676.884 128.501 678.87 130.96 678.87 133.549C678.87 136.071 676.906 138.743 673.387 138.743M666.462 138.407L663.36 139.115C662.096 139.31 660.966 139.479 659.776 139.479C653.784 139.479 651.502 135.118 651.502 131.701C651.502 127.531 654.736 123.663 660.274 123.663C661.396 123.665 662.513 123.816 663.595 124.113C665.225 124.565 665.985 125.124 666.461 125.446L664.659 127.143L663.9 127.315L664.443 126.454C663.704 125.746 662.357 124.435 659.795 124.435C656.365 124.435 653.782 127.018 653.782 130.778C653.782 134.817 656.732 138.622 661.466 138.622C662.857 138.622 663.573 138.34 664.224 138.083V134.625L660.948 134.796L662.684 133.868H667.287L666.721 134.41C666.567 134.538 666.546 134.579 666.504 134.753C666.482 134.945 666.459 135.57 666.459 135.781V138.406L666.462 138.407Z" fill="white"/>
</g>
<mask id="mask6_362_733" style="mask-type:luminance" maskUnits="userSpaceOnUse" x="651" y="107" width="106" height="39">
<path d="M651.503 107.903H756.422V145.125H651.503V107.903Z" fill="white"/>
</mask>
<g mask="url(#mask6_362_733)">
<path fill-rule="evenodd" clip-rule="evenodd" d="M705.571 137.788C704.854 137.722 704.703 137.596 704.703 136.754V124.59L704.717 124.451C704.804 123.699 705.02 123.571 705.697 123.182H702.589L700.96 123.96H702.619V137.226C702.619 137.657 702.535 137.722 702.033 138.365H705.876L706.681 137.897C706.312 137.85 705.942 137.831 705.573 137.786M712.379 131.621C712.79 131.474 713.004 131.343 713.004 131.047C713.004 130.195 712.034 129.211 710.869 129.211C710.005 129.211 708.391 129.874 708.391 132.179C708.391 132.54 708.433 132.925 708.457 133.308L712.377 131.62L712.379 131.621ZM714.409 137.985C714.171 138.11 713.933 138.263 713.698 138.367C712.984 138.69 712.251 138.774 711.602 138.774C710.916 138.774 709.836 138.729 708.737 137.94C707.205 136.874 706.539 135.038 706.539 133.436C706.539 130.126 709.257 128.506 711.476 128.506C712.252 128.506 713.05 128.7 713.7 129.103C714.775 129.807 715.055 130.724 715.206 131.217L710.141 133.245L708.479 133.374C709.018 136.082 710.873 137.663 712.921 137.663C714.022 137.663 714.82 137.278 715.553 136.917L714.411 137.986L714.409 137.985ZM716.488 128.653V130.061H716.315V128.653H715.844V128.507H716.96V128.653H716.488ZM718.427 130.061V128.639H718.423L717.982 130.061H717.846L717.404 128.64H717.4V130.063H717.24V128.507H717.51L717.911 129.765H717.914L718.308 128.508H718.58V130.064H718.426L718.427 130.061Z" fill="white"/>
</g>
</g>
<defs>
<linearGradient id="paint0_linear_362_733" x1="1000.5" y1="-427.48" x2="1617.43" y2="1654.25" gradientUnits="userSpaceOnUse">
<stop stop-color="#19A3B4"/>
<stop offset="0.34817" stop-color="#5BC3AF"/>
<stop offset="0.92234" stop-color="#C9F7A6"/>
<stop offset="1" stop-color="#D7FEA5"/>
</linearGradient>
<linearGradient id="paint1_linear_362_733" x1="451.577" y1="-973.069" x2="1161.64" y2="1328.64" gradientUnits="userSpaceOnUse">
<stop stop-color="#FC227C"/>
<stop offset="1" stop-color="#FEEB7B"/>
</linearGradient>
<linearGradient id="paint2_linear_362_733" x1="1070.52" y1="-341.659" x2="2111.72" y2="2360.26" gradientUnits="userSpaceOnUse">
<stop stop-color="#0E4DA0"/>
<stop offset="1" stop-color="#6BFED4"/>
</linearGradient>
<linearGradient id="paint3_linear_362_733" x1="3274.98" y1="377.312" x2="1338.66" y2="2588.82" gradientUnits="userSpaceOnUse">
<stop stop-color="#FC472E"/>
<stop offset="0.00332" stop-color="#FC472E"/>
<stop offset="1" stop-color="#893CD8"/>
</linearGradient>
<clipPath id="clip0_362_733">
<rect width="168" height="50" fill="white" transform="translate(600)"/>
</clipPath>
<clipPath id="clip1_362_733">
<rect width="168" height="50" fill="white" transform="translate(600 100)"/>
</clipPath>
</defs>
</svg>
